<?xml version="1.0" encoding="UTF-8"?>
<svg version="1.1" xmlns="http://www.w3.org/2000/svg" width="128" height="128">
<path d="M0 0 C37.62 0 75.24 0 114 0 C113.36958676 14.49950449 112.67262203 28.9430015 111.625 43.41015625 C111.49410709 45.24619675 111.36341503 47.08225158 111.23291016 48.9183197 C110.9626618 52.71042649 110.69020125 56.50236537 110.41601562 60.29418945 C110.06554512 65.14322272 109.72060325 69.99263142 109.37722778 74.84217167 C109.10993548 78.60927783 108.83990575 82.37618389 108.56903076 86.14303398 C108.44064046 87.93268458 108.31306445 89.72239381 108.18634033 91.51216316 C108.00980612 93.9992841 107.82960867 96.48611349 107.6484375 98.97290039 C107.59749939 99.70065674 107.54656128 100.42841309 107.49407959 101.17822266 C107.19910323 105.16744495 106.72355432 109.06579353 106 113 C99.62208816 115.17992857 93.23505819 117.33133022 86.84106445 119.46362305 C84.66929167 120.19153647 82.49964762 120.92583469 80.33227539 121.66674805 C77.20743733 122.73371342 74.07553644 123.77710133 70.94140625 124.81640625 C69.50179283 125.31630821 69.50179283 125.31630821 68.03309631 125.8263092 C57.94379387 129.11955742 50.54574314 127.15013961 40.71484375 123.83984375 C39.77314835 123.53051407 38.83145294 123.22118439 37.86122131 122.90248108 C34.88385331 121.92238792 31.9106949 120.93017162 28.9375 119.9375 C26.90716795 119.26676964 24.87657127 118.59683976 22.84570312 117.92773438 C17.89354751 116.2958889 12.94645791 114.64901651 8 113 C6.6324229 99.21144923 5.45790898 85.42379554 4.4921875 71.6015625 C4.36067744 69.74261409 4.22901101 67.88367674 4.09719849 66.02474976 C3.82501972 62.17807303 3.55464496 58.33127526 3.28564453 54.484375 C2.9416875 49.56757708 2.59313702 44.65111699 2.24328423 39.73473549 C1.97211962 35.917251 1.70330998 32.09960349 1.435215 28.28190231 C1.30755084 26.4678481 1.17917252 24.65384398 1.05004501 22.83989334 C0.87065531 20.31480981 0.69443829 17.78952388 0.51904297 15.26416016 C0.46608063 14.52750626 0.41311829 13.79085236 0.35855103 13.03187561 C0.05879205 8.65793798 0 4.40075787 0 0 Z " fill="#FE7817" transform="translate(7,0)"/>
<path d="M0 0 C18.81 0 37.62 0 57 0 C56.36958676 14.49950449 55.67262203 28.9430015 54.625 43.41015625 C54.49410709 45.24619675 54.36341503 47.08225158 54.23291016 48.9183197 C53.9626618 52.71042649 53.69020125 56.50236537 53.41601562 60.29418945 C53.06554512 65.14322272 52.72060325 69.99263142 52.37722778 74.84217167 C52.10993548 78.60927783 51.83990575 82.37618389 51.56903076 86.14303398 C51.44064046 87.93268458 51.31306445 89.72239381 51.18634033 91.51216316 C51.00980612 93.9992841 50.82960867 96.48611349 50.6484375 98.97290039 C50.59749939 99.70065674 50.54656128 100.42841309 50.49407959 101.17822266 C50.19910323 105.16744495 49.72355432 109.06579353 49 113 C42.50585153 115.14242317 36.00946965 117.27796361 29.51147461 119.40869141 C27.30033944 120.13463883 25.08972401 120.86217128 22.87963867 121.59130859 C19.70626354 122.63794567 16.53107441 123.67890329 13.35546875 124.71875 C11.86940376 125.21091003 11.86940376 125.21091003 10.35331726 125.7130127 C8.97222527 126.16347961 8.97222527 126.16347961 7.56323242 126.62304688 C6.7527092 126.88952026 5.94218597 127.15599365 5.10710144 127.43054199 C3 128 3 128 0 128 C0 121.73 0 115.46 0 109 C9.73303441 104.67420693 19.89554554 101.36815149 30 98 C31.32 83.15 32.64 68.3 34 53 C16.51 53 -0.98 53 -19 53 C-19.33 46.73 -19.66 40.46 -20 34 C-1.52 34 16.96 34 36 34 C36 29.05 36 24.1 36 19 C24.12 19 12.24 19 0 19 C0 12.73 0 6.46 0 0 Z " fill="#FE4C01" transform="translate(64,0)"/>
<path d="M0 0 C23.76 0 47.52 0 72 0 C72 4.95 72 9.9 72 15 C53.52 15 35.04 15 16 15 C16.33 17.64 16.66 20.28 17 23 C17 26.63 17 30.26 17 34 C34.49 34 51.98 34 70 34 C68.84966216 60.45777027 68.84966216 60.45777027 67.9375 69.4375 C67.84662109 70.38302734 67.75574219 71.32855469 67.66210938 72.30273438 C67.44674333 74.53574021 67.22625519 76.76807653 67 79 C60.68860396 81.56166003 54.36648251 84.06038058 47.9375 86.3125 C47.19951172 86.58900391 46.46152344 86.86550781 45.70117188 87.15039062 C35.62048744 90.64561484 27.25059168 87.37611286 17.5 84 C16.40429688 83.63132812 15.30859375 83.26265625 14.1796875 82.8828125 C6.15472274 80.15472274 6.15472274 80.15472274 5 79 C4.92686433 76.46950598 4.90752473 73.96695163 4.9375 71.4375 C4.94201172 70.72658203 4.94652344 70.01566406 4.95117188 69.28320312 C4.96299136 67.52209987 4.98092737 65.76103964 5 64 C9.62 64 14.24 64 19 64 C19.33 65.32 19.66 66.64 20 68 C26.95105612 71.55227474 34.4658988 73.36081692 42.01953125 71.09375 C44.16418902 70.38140816 46.30042252 69.64300918 48.42578125 68.875 C51 68 51 68 53 68 C53 61.73 53 55.46 53 49 C36.5 49 20 49 3 49 C2.505 42.77125 2.01 36.5425 1.5 30.125 C1.34337891 28.17996582 1.18675781 26.23493164 1.02539062 24.23095703 C0.90203565 22.65659963 0.77897026 21.0822195 0.65625 19.5078125 C0.59147461 18.71689209 0.52669922 17.92597168 0.45996094 17.11108398 C0.01649161 11.35478178 0 5.81530554 0 0 Z " fill="#E7E5E9" transform="translate(28,19)"/>
<path d="M0 0 C11.88 0 23.76 0 36 0 C36 4.95 36 9.9 36 15 C24.12 15 12.24 15 0 15 C0 10.05 0 5.1 0 0 Z " fill="#E2E1E6" transform="translate(64,19)"/>
<path d="M0 0 C4.62 0 9.24 0 14 0 C14.33 1.32 14.66 2.64 15 4 C17.54269447 5.1020323 19.85700576 5.93339797 22.5 6.6875 C29.93019054 8.93019054 29.93019054 8.93019054 31 10 C31.07313567 12.53049402 31.09247527 15.03304837 31.0625 17.5625 C31.05798828 18.27341797 31.05347656 18.98433594 31.04882812 19.71679688 C31.03700864 21.47790013 31.01907263 23.23896036 31 25 C24.14518608 23.60234839 17.62181279 21.68335958 11 19.4375 C10.04738281 19.12103516 9.09476563 18.80457031 8.11328125 18.47851562 C1.13375235 16.13375235 1.13375235 16.13375235 0 15 C-0.07313567 12.46950598 -0.09247527 9.96695163 -0.0625 7.4375 C-0.05798828 6.72658203 -0.05347656 6.01566406 -0.04882812 5.28320312 C-0.03700864 3.52209987 -0.01907263 1.76103964 0 0 Z " fill="#ECEAEE" transform="translate(33,83)"/>
<path d="M0 0 C6.6 0 13.2 0 20 0 C20 5.94 20 11.88 20 18 C31.22 18 42.44 18 54 18 C54 18.33 54 18.66 54 19 C36.51 19 19.02 19 1 19 C0.67 12.73 0.34 6.46 0 0 Z " fill="#FD7B20" transform="translate(44,34)"/>
<path d="M0 0 C5.61 0 11.22 0 17 0 C17 6.27 17 12.54 17 19 C13.6278125 20.2375 13.6278125 20.2375 10.1875 21.5 C9.13212036 21.89155273 9.13212036 21.89155273 8.05541992 22.29101562 C5.22363626 23.31587486 3.03435748 24 0 24 C0 16.08 0 8.16 0 0 Z " fill="#FE4C02" transform="translate(64,68)"/>
</svg>
