<?xml version="1.0" encoding="UTF-8"?>
<svg version="1.1" xmlns="http://www.w3.org/2000/svg" width="96" height="96">
<path d="M0 0 C3.51491555 2.37203042 5.52775097 4.26845408 6.48216248 8.47572327 C7.0544124 13.1652503 6.84654491 17.80839291 6.61155701 22.51429749 C6.58449278 24.15938096 6.56425062 25.80459156 6.55101013 27.44984436 C6.50403922 31.45628554 6.36469256 35.44972399 6.17405701 39.45179749 C7.01710388 38.94648499 7.86015076 38.44117249 8.72874451 37.92054749 C10.37229919 36.94601624 10.37229919 36.94601624 12.04905701 35.95179749 C13.68487732 34.97726624 13.68487732 34.97726624 15.35374451 33.98304749 C18.17405701 32.45179749 18.17405701 32.45179749 20.17405701 32.45179749 C20.12692566 31.87735901 20.07979431 31.30292053 20.03123474 30.71107483 C18.85858967 14.34022393 18.85858967 14.34022393 21.93186951 9.92835999 C24.29427455 8.41481912 26.54563148 7.42016478 29.17405701 6.45179749 C30.43591894 5.65784491 31.68738145 4.84693776 32.92405701 4.01429749 C36.6678495 2.21439725 37.32590593 2.26564864 41.17405701 3.45179749 C43.6525756 4.72961151 46.03165936 6.03224203 48.42405701 7.45179749 C49.06085388 7.82046936 49.69765076 8.18914124 50.35374451 8.56898499 C54.99979043 11.2775309 54.99979043 11.2775309 56.17405701 12.45179749 C57.41654008 19.81005837 58.19550011 28.20658459 56.17405701 35.45179749 C53.55801554 38.45792738 50.20041419 39.66124944 46.58470154 41.15077209 C44.5082371 42.10217663 42.86657182 42.91242842 41.17405701 44.45179749 C40.24773364 47.48669557 40.39176748 50.36756515 40.54905701 53.51429749 C40.84902249 61.66596222 40.84902249 61.66596222 38.00999451 64.97132874 C35.2063659 66.65705479 32.39007332 68.06719011 29.39768982 69.38392639 C26.78271198 70.63973591 24.35760228 72.10302705 21.88499451 73.61976624 C20.50295837 74.45918762 20.50295837 74.45918762 19.09300232 75.31556702 C17.25780116 76.43137702 15.42628271 77.55327112 13.59886169 78.68177795 C9.88811202 80.85299088 7.11631289 82.37772419 2.79515076 82.71742249 C-2.85347754 80.74314464 -7.78395875 77.73057066 -12.88844299 74.63929749 C-13.95127502 74.00959045 -15.01410706 73.37988342 -16.10914612 72.73109436 C-19.02932788 70.9928475 -21.93952022 69.24555207 -24.82594299 67.45179749 C-25.90827209 66.98902405 -26.9906012 66.52625061 -28.10572815 66.04945374 C-31.94488772 62.38326653 -31.67538348 59.39961268 -31.89047241 54.23397827 C-31.90656052 52.99230392 -31.92264862 51.75062958 -31.93922424 50.47132874 C-31.96630966 49.18876694 -31.99339508 47.90620514 -32.02130127 46.58477783 C-32.07073072 43.86859061 -32.09385954 41.15350958 -32.10255432 38.43690491 C-32.11547446 35.6606188 -32.17783214 32.89269185 -32.28712463 30.11854553 C-33.14700877 7.93648776 -33.14700877 7.93648776 -29.38252258 2.28474426 C-20.40301748 -6.31495 -10.15054726 -5.85475096 0 0 Z M-18.95094299 2.45179749 C-20.31606018 3.28710999 -20.31606018 3.28710999 -21.70875549 4.13929749 C-22.40742737 4.57242249 -23.10609924 5.00554749 -23.82594299 5.45179749 C-22.41196785 9.69372292 -19.93945391 10.55028231 -16.09938049 12.56117249 C-13.81437464 13.68048301 -13.81437464 13.68048301 -11.20094299 13.01429749 C-10.41719299 12.49867249 -9.63344299 11.98304749 -8.82594299 11.45179749 C-7.55766805 10.73889346 -6.28669617 10.03077179 -5.01344299 9.32679749 C-3.96156799 8.70804749 -2.90969299 8.08929749 -1.82594299 7.45179749 C-3.04619363 3.79104558 -3.95243399 3.52840308 -7.26344299 1.76429749 C-8.06652893 1.3273053 -8.86961487 0.89031311 -9.69703674 0.44007874 C-13.69201781 -1.41447211 -15.38668026 0.25840503 -18.95094299 2.45179749 Z M30.92405701 10.45179749 C29.58601013 11.28710999 29.58601013 11.28710999 28.22093201 12.13929749 C27.54546326 12.57242249 26.86999451 13.00554749 26.17405701 13.45179749 C31.88141206 18.59816245 31.88141206 18.59816245 38.98655701 20.45179749 C43.19993362 19.12995384 46.55446492 16.94141539 50.17405701 14.45179749 C41.25176205 7.02997663 41.25176205 7.02997663 30.92405701 10.45179749 Z M-27.82594299 10.45179749 C-31.80453831 38.17878927 -31.80453831 38.17878927 -25.79566956 64.03138733 C-20.85385575 68.79690767 -15.12653887 71.02835021 -8.54859924 72.70863342 C-4.65101747 73.7724999 -1.37093106 75.53581584 2.17405701 77.45179749 C2.70849973 73.00470616 2.94456958 68.87960605 2.17405701 64.45179749 C-1.16041834 60.54675636 -5.81822235 58.88518854 -10.45509338 56.89100647 C-12.32086182 55.80856323 -12.32086182 55.80856323 -13.82594299 54.45179749 C-14.44160472 51.34276642 -14.58208122 49.26226477 -14.41188049 46.17835999 C-14.39328624 44.53253074 -14.37506882 42.88669719 -14.35719299 41.24085999 C-14.28649656 38.65749434 -14.20088834 36.07533673 -14.10426331 33.49281311 C-13.357683 23.70170985 -13.357683 23.70170985 -16.72926331 14.98597717 C-20.27450061 12.55524754 -23.69374125 11.4610236 -27.82594299 10.45179749 Z M-4.88844299 13.38929749 C-5.78691956 13.93457092 -6.68539612 14.47984436 -7.61109924 15.04164124 C-9.71533041 16.26894901 -9.71533041 16.26894901 -10.82594299 17.45179749 C-10.9143397 19.82748268 -10.94124605 22.17388422 -10.92359924 24.54945374 C-10.9221843 25.25831223 -10.92076935 25.96717072 -10.91931152 26.69750977 C-10.91369742 28.96981461 -10.90114262 31.24202224 -10.88844299 33.51429749 C-10.88342981 35.05140544 -10.87886659 36.58851494 -10.87477112 38.12562561 C-10.86372342 41.9010539 -10.84644941 45.67640919 -10.82594299 49.45179749 C-8.84557813 48.47505644 -6.86668166 47.49533766 -4.88844299 46.51429749 C-3.78629456 45.96902405 -2.68414612 45.42375061 -1.54859924 44.86195374 C1.02200114 43.7047477 1.02200114 43.7047477 2.17405701 42.45179749 C2.26245371 40.07611229 2.28936006 37.72971075 2.27171326 35.35414124 C2.26959084 34.2908535 2.26959084 34.2908535 2.26742554 33.20608521 C2.26181143 30.93378036 2.24925664 28.66157273 2.23655701 26.38929749 C2.23154382 24.85218953 2.2269806 23.31508004 2.22288513 21.77796936 C2.21183743 18.00254107 2.19456342 14.22718578 2.17405701 10.45179749 C-0.7478948 10.45179749 -2.41436556 11.87637244 -4.88844299 13.38929749 Z M23.17405701 17.45179749 C23.17405701 22.40179749 23.17405701 27.35179749 23.17405701 32.45179749 C27.46405701 34.76179749 31.75405701 37.07179749 36.17405701 39.45179749 C37.06102349 31.80359698 37.06102349 31.80359698 36.17405701 24.45179749 C33.00281659 21.37921789 27.86517741 17.45179749 23.17405701 17.45179749 Z M40.17405701 24.45179749 C39.01974923 29.99020032 39.55443182 33.61699364 40.17405701 39.45179749 C44.46405701 37.14179749 48.75405701 34.83179749 53.17405701 32.45179749 C53.17405701 27.50179749 53.17405701 22.55179749 53.17405701 17.45179749 C48.48293661 17.45179749 43.34529742 21.37921789 40.17405701 24.45179749 Z M8.98655701 42.01429749 C7.91985779 42.67494202 6.85315857 43.33558655 5.75413513 44.01625061 C3.76638514 45.25066946 1.78661093 46.49809519 -0.18214417 47.7625885 C-1.97766352 48.90980417 -3.80863642 50.0029739 -5.66700745 51.04530334 C-6.37945618 51.50944641 -7.09190491 51.97358948 -7.82594299 52.45179749 C-7.82594299 53.11179749 -7.82594299 53.77179749 -7.82594299 54.45179749 C-4.35914585 57.8291289 -0.78820301 60.47238328 4.17405701 60.45179749 C11.56154886 57.92680702 18.13722498 53.3451994 24.63352966 49.0973053 C27.74741045 47.0804346 30.93120575 45.25187391 34.17405701 43.45179749 C32.56777632 42.04630188 30.8815568 40.73242233 29.17405701 39.45179749 C28.64127136 39.01440247 28.10848572 38.57700745 27.55955505 38.12635803 C20.43872111 33.30906924 15.40772422 37.82896736 8.98655701 42.01429749 Z M30.03733826 49.37367249 C28.98481873 49.98726624 27.93229919 50.60085999 26.84788513 51.23304749 C25.73864685 51.88273499 24.62940857 52.53242249 23.48655701 53.20179749 C22.39665466 53.83601624 21.30675232 54.47023499 20.18382263 55.12367249 C18.08373603 56.35074682 15.98937906 57.58769338 13.90159607 58.83558655 C12.31325536 59.7767623 10.71120865 60.69670792 9.07933044 61.56019592 C7.23001917 62.51895237 7.23001917 62.51895237 5.17405701 64.45179749 C4.45067246 67.71690904 4.45067246 67.71690904 4.79905701 71.20179749 C4.85319763 72.37226624 4.90733826 73.54273499 4.96311951 74.74867249 C5.03272888 75.64070374 5.10233826 76.53273499 5.17405701 77.45179749 C8.51859141 75.86965247 11.81270966 74.2046259 15.09642029 72.50013733 C16.58818948 71.74741619 18.0936579 71.02161694 19.60716248 70.31361389 C29.79102658 66.16414046 29.79102658 66.16414046 37.02122498 58.58314514 C37.80366645 54.42155403 37.18803214 50.51362769 36.17405701 46.45179749 C34.04450515 46.45179749 31.79213095 48.35027609 30.03733826 49.37367249 Z " fill="#FA5151" transform="translate(36.82594299316406,10.548202514648438)"/>
</svg>
