<?xml version="1.0" encoding="UTF-8"?>
<svg version="1.1" xmlns="http://www.w3.org/2000/svg" width="96" height="96">
<path d="M0 0 C10.89 0 21.78 0 33 0 C41 14 41 14 41 16 C41.66 16 42.32 16 43 16 C43.66 14.35 44.32 12.7 45 11 C46.98 7.37 48.96 3.74 51 0 C61.89 0 72.78 0 84 0 C82.60492908 4.18521275 81.62635157 6.95336309 79.453125 10.5546875 C78.94515381 11.40434082 78.43718262 12.25399414 77.91381836 13.12939453 C77.09022827 14.48846924 77.09022827 14.48846924 76.25 15.875 C75.06825193 17.84850435 73.88728961 19.82247937 72.70703125 21.796875 C72.09553223 22.81716797 71.4840332 23.83746094 70.85400391 24.88867188 C67.84157302 29.9440339 64.89195973 35.03561982 61.9375 40.125 C55.72261847 50.80916626 49.39314173 61.42167554 43 72 C39.08441879 70.69480626 38.74896992 69.29307187 36.76953125 65.7265625 C36.13917969 64.60459473 35.50882813 63.48262695 34.859375 62.32666016 C34.52615234 61.72396301 34.19292969 61.12126587 33.84960938 60.50030518 C32.08100809 57.3023135 30.28257814 54.12112182 28.48828125 50.9375 C27.93450302 49.95204697 27.93450302 49.95204697 27.36953735 48.94668579 C23.51901564 42.10942697 19.51926611 35.36396592 15.5 28.625 C6.3902255 13.30726193 6.3902255 13.30726193 3 7.4375 C2.401875 6.40496094 1.80375 5.37242188 1.1875 4.30859375 C0 2 0 2 0 0 Z " fill="#81C684" transform="translate(6,16)"/>
<path d="M0 0 C5.28 0 10.56 0 16 0 C17.32 2.26875 18.64 4.5375 20 6.875 C20.41765625 7.58769043 20.8353125 8.30038086 21.265625 9.03466797 C24 13.77777778 24 13.77777778 24 16 C24.66 16 25.32 16 26 16 C26.26554687 15.29488281 26.53109375 14.58976562 26.8046875 13.86328125 C28.81938689 9.0372203 31.46641686 4.57146523 34 0 C39.28 0 44.56 0 50 0 C48.56024851 3.59937872 47.1645347 6.66035013 45.27734375 9.9921875 C44.74278564 10.93827881 44.20822754 11.88437012 43.6574707 12.85913086 C43.08988037 13.85436768 42.52229004 14.84960449 41.9375 15.875 C41.35766357 16.89408447 40.77782715 17.91316895 40.18041992 18.96313477 C38.45955223 21.97887511 36.73155813 24.99038707 35 28 C34.51885742 28.83805176 34.03771484 29.67610352 33.54199219 30.53955078 C32.30868101 32.67816484 31.06407317 34.80953498 29.8125 36.9375 C29.4508374 37.56317871 29.0891748 38.18885742 28.71655273 38.83349609 C27.86774032 40.25769454 26.94193191 41.63559977 26 43 C25.34 43 24.68 43 24 43 C22.64648438 41.06665039 22.64648438 41.06665039 21.09375 38.34765625 C20.51898926 37.35072754 19.94422852 36.35379883 19.35205078 35.32666016 C18.74087402 34.2494873 18.12969727 33.17231445 17.5 32.0625 C16.23741915 29.86302862 14.97439518 27.66381156 13.7109375 25.46484375 C13.08541992 24.37155762 12.45990234 23.27827148 11.81542969 22.15185547 C10.18299387 19.31770453 8.52719303 16.50016976 6.8515625 13.69140625 C6.38685547 12.9120874 5.92214844 12.13276855 5.44335938 11.32983398 C4.58021148 9.88629905 3.71442457 8.44433803 2.84570312 7.00415039 C0 2.22044613 0 2.22044613 0 0 Z " fill="#465D64" transform="translate(23,16)"/>
</svg>
