<?xml version="1.0" encoding="UTF-8"?>
<svg version="1.1" xmlns="http://www.w3.org/2000/svg" width="96" height="96">
<path d="M0 0 C1.94398786 -0.0774772 3.88690776 -0.19260007 5.82617188 -0.34863281 C16.57913433 -1.19884124 25.03464542 -0.31286732 33.79672241 6.42904663 C41.82800708 13.70449087 45.66139169 20.76729298 46.34449768 31.63594055 C46.56747179 37.96754242 46.30075035 44.26585695 45.94244385 50.58703613 C45.75944962 54.24013942 45.70054247 57.89540724 45.62475586 61.55200195 C45.49103198 66.8661524 45.32050358 72.17660769 45.04980469 77.48583984 C44.99693802 78.54327896 44.94407135 79.60071808 44.88960266 80.69020081 C44.52124023 83.19458008 44.52124023 83.19458008 42.52124023 85.19458008 C40.01635742 85.44854736 40.01635742 85.44854736 36.81811523 85.45336914 C35.62347656 85.45967346 34.42883789 85.46597778 33.19799805 85.47247314 C31.90216797 85.46842468 30.60633789 85.46437622 29.27124023 85.46020508 C27.93367441 85.46155186 26.59610907 85.4634925 25.25854492 85.46600342 C22.45413557 85.46895408 19.64985355 85.46465901 16.84545898 85.45532227 C13.24719101 85.44392761 9.64922138 85.45048742 6.05096436 85.46246719 C3.28863265 85.46968744 0.5263719 85.46739714 -2.23596191 85.46221161 C-4.2091491 85.46022482 -6.18233902 85.4663085 -8.15551758 85.47247314 C-9.35015625 85.46616882 -10.54479492 85.4598645 -11.77563477 85.45336914 C-12.83105469 85.45177795 -13.88647461 85.45018677 -14.97387695 85.44854736 C-17.47875977 85.19458008 -17.47875977 85.19458008 -19.47875977 83.19458008 C-19.67707493 80.64569883 -19.75154239 78.20547787 -19.73754883 75.65551758 C-19.74105347 74.87815247 -19.74455811 74.10078735 -19.74816895 73.29986572 C-19.75699182 70.72301376 -19.75113522 68.14643498 -19.74438477 65.56958008 C-19.74573126 63.78360949 -19.74767166 61.99763925 -19.75018311 60.21166992 C-19.75313512 56.46570349 -19.74883426 52.71983233 -19.73950195 48.97387695 C-19.72810736 44.16495175 -19.73466642 39.35624977 -19.74664688 34.54733276 C-19.7538634 30.85854399 -19.75157851 27.16980841 -19.7463913 23.48101807 C-19.74505422 21.70753961 -19.74670453 19.93405637 -19.7513504 18.1605835 C-19.75641226 15.68480582 -19.74871039 13.20939298 -19.73754883 10.73364258 C-19.74159729 9.99591614 -19.74564575 9.2581897 -19.74981689 8.49810791 C-19.66050837 -2.1592698 -8.30925859 0.25688798 0 0 Z " fill="#429F46" transform="translate(35.478759765625,4.805419921875)"/>
<path d="M0 0 C11.88 0 23.76 0 36 0 C36 9.24 36 18.48 36 28 C24.12 28 12.24 28 0 28 C0 18.76 0 9.52 0 0 Z " fill="#E8F5E9" transform="translate(30,46)"/>
<path d="M0 0 C7.88867408 6.76172064 7.88867408 6.76172064 10.52734375 9.39453125 C11.09130859 9.95720703 11.65527344 10.51988281 12.23632812 11.09960938 C12.79771484 11.66486328 13.35910156 12.23011719 13.9375 12.8125 C14.52595703 13.39708984 15.11441406 13.98167969 15.72070312 14.58398438 C20 18.87322154 20 18.87322154 20 20 C13.4 20 6.8 20 0 20 C0 13.4 0 6.8 0 0 Z " fill="#C4E3C5" transform="translate(60,6)"/>
<path d="M0 0 C6.27 0 12.54 0 19 0 C19 6.27 19 12.54 19 19 C14.33402656 15.0005942 9.87533865 11.03280669 5.5625 6.6875 C5.02173828 6.15060547 4.48097656 5.61371094 3.92382812 5.06054688 C0 1.12679757 0 1.12679757 0 0 Z " fill="#2E7D32" transform="translate(61,26)"/>
<path d="M0 0 C5.28 0 10.56 0 16 0 C16 1.32 16 2.64 16 4 C10.72 4 5.44 4 0 4 C0 2.68 0 1.36 0 0 Z " fill="#43A047" transform="translate(46,66)"/>
<path d="M0 0 C5.28 0 10.56 0 16 0 C16 1.32 16 2.64 16 4 C10.72 4 5.44 4 0 4 C0 2.68 0 1.36 0 0 Z " fill="#43A047" transform="translate(46,58)"/>
<path d="M0 0 C5.28 0 10.56 0 16 0 C16 1.32 16 2.64 16 4 C10.72 4 5.44 4 0 4 C0 2.68 0 1.36 0 0 Z " fill="#43A047" transform="translate(46,50)"/>
<path d="M0 0 C2.64 0 5.28 0 8 0 C8 1.32 8 2.64 8 4 C5.36 4 2.72 4 0 4 C0 2.68 0 1.36 0 0 Z " fill="#43A047" transform="translate(34,66)"/>
<path d="M0 0 C2.64 0 5.28 0 8 0 C8 1.32 8 2.64 8 4 C5.36 4 2.72 4 0 4 C0 2.68 0 1.36 0 0 Z " fill="#43A047" transform="translate(34,58)"/>
<path d="M0 0 C2.64 0 5.28 0 8 0 C8 1.32 8 2.64 8 4 C5.36 4 2.72 4 0 4 C0 2.68 0 1.36 0 0 Z " fill="#43A047" transform="translate(34,50)"/>
</svg>
