<?xml version="1.0" encoding="UTF-8"?>
<svg version="1.1" xmlns="http://www.w3.org/2000/svg" width="96" height="96">
<path d="M0 0 C6.1064496 2.88445358 10.87719044 6.14908789 14.484375 11.90625 C14.89429688 12.52757812 15.30421875 13.14890625 15.7265625 13.7890625 C19.57463639 20.76867238 19.73492024 29.16670045 18.484375 36.90625 C16.08339329 44.48249263 12.27131339 50.65385292 5.484375 54.90625 C4.86304688 55.31617188 4.24171875 55.72609375 3.6015625 56.1484375 C-3.37804738 59.99651139 -11.77607545 60.15679524 -19.515625 58.90625 C-27.09186763 56.50526829 -33.26322792 52.69318839 -37.515625 45.90625 C-37.92554688 45.28492188 -38.33546875 44.66359375 -38.7578125 44.0234375 C-42.60588639 37.04382762 -42.76617024 28.64579955 -41.515625 20.90625 C-39.22510083 13.67855359 -35.37752786 6.65584271 -28.515625 2.90625 C-26.865625 2.57625 -25.215625 2.24625 -23.515625 1.90625 C-22.525625 5.20625 -21.535625 8.50625 -20.515625 11.90625 C-21.44375 12.6075 -22.371875 13.30875 -23.328125 14.03125 C-27.29297168 17.41496076 -29.19518931 20.38192881 -29.8671875 25.67578125 C-30.15736125 31.7465215 -29.75338752 36.3392333 -26.046875 41.28125 C-21.60004727 46.00033249 -17.90304381 47.15808018 -11.578125 47.46875 C-5.73090185 47.2492047 -1.78978734 45.93382605 2.484375 41.90625 C6.64843728 36.8052737 7.17498015 32.38061722 6.9296875 25.84765625 C6.00447776 19.73640243 3.18842377 16.29078962 -1.515625 12.46875 C-6.703807 9.84577157 -12.82133399 10.07750687 -18.515625 9.90625 C-20.000625 4.95625 -20.000625 4.95625 -21.515625 -0.09375 C-15.63234891 -3.03538805 -6.09235802 -1.89540027 0 0 Z " fill="#2096F3" transform="translate(61.515625,37.09375)"/>
<path d="M0 0 C1.2684375 -0.02513672 1.2684375 -0.02513672 2.5625 -0.05078125 C5.45330535 0.38005993 6.82826275 1.40720274 9 3.3125 C3.79836233 8.26644063 3.79836233 8.26644063 -0.25 8.5 C-1.1575 8.438125 -2.065 8.37625 -3 8.3125 C-5.31563087 10.19750271 -5.31563087 10.19750271 -5.25 13.3125 C-5.31563087 16.42749729 -5.31563087 16.42749729 -3 18.3125 C-2.175 18.56 -1.35 18.8075 -0.5 19.0625 C2 20.3125 2 20.3125 3.3125 23.4375 C3.6528125 24.860625 3.6528125 24.860625 4 26.3125 C-0.77003402 26.69410272 -4.09465992 26.7734004 -8.4375 24.5625 C-11.49209175 21.88041943 -12.76361495 19.97818998 -13.3359375 15.9453125 C-13.42500354 10.22727243 -12.99386657 6.75012952 -9 2.3125 C-5.95597716 0.41974221 -3.56297282 0.01629408 0 0 Z " fill="#F44035" transform="translate(33,11.6875)"/>
<path d="M0 0 C2.5 1.5 2.5 1.5 4 4 C4.791013 8.02098277 4.62153384 10.96411027 2.5 14.5 C-1.14008723 16.68405234 -3.79654733 16.28023018 -8 16 C-8 13 -8 13 -6 11 C-3.875 10.375 -3.875 10.375 -2 10 C-2 8.68 -2 7.36 -2 6 C-3.32 6 -4.64 6 -6 6 C-6.4021875 7.175625 -6.4021875 7.175625 -6.8125 8.375 C-8 11 -8 11 -11 13 C-12 12 -12 12 -12.3125 8.1875 C-12.25377389 5.21382315 -12.07349312 4.12248853 -10.5 1.5 C-6.96411027 -0.62153384 -4.02098277 -0.791013 0 0 Z " fill="#19AB65" transform="translate(54,0)"/>
<path d="M0 0 C3.34981951 3.85629089 3.50608172 6.5535089 3.359375 11.51953125 C2.83603259 15.13173155 1.41176404 17.31260579 -1 20 C-1.99 20.33 -2.98 20.66 -4 21 C-6.74260783 16.16010383 -6.33676363 11.23844247 -5 6 C-3.54343009 3.57078637 -2.05113468 1.99854148 0 0 Z " fill="#FFCA26" transform="translate(43,16)"/>
</svg>
