<?xml version="1.0" encoding="UTF-8"?>
<svg version="1.1" xmlns="http://www.w3.org/2000/svg" width="96" height="96">
<path d="M0 0 C0.85095749 -0.00570007 1.70191498 -0.01140015 2.57865906 -0.01727295 C4.38177241 -0.02672798 6.18490308 -0.03325892 7.98803711 -0.03710938 C10.74038073 -0.04679987 13.49197283 -0.07781175 16.24414062 -0.109375 C17.99608932 -0.11590663 19.74804335 -0.12115647 21.5 -0.125 C22.73149529 -0.1435202 22.73149529 -0.1435202 23.98786926 -0.16241455 C29.63924917 -0.14050128 32.83769517 0.96467622 37.19921875 4.703125 C40.51153466 8.67790409 39.88528969 14.33626184 39.44921875 19.203125 C37.8568085 22.94528909 35.91351666 25.07984563 32.44921875 27.203125 C31.78921875 27.203125 31.12921875 27.203125 30.44921875 27.203125 C30.44921875 27.863125 30.44921875 28.523125 30.44921875 29.203125 C31.02671875 29.285625 31.60421875 29.368125 32.19921875 29.453125 C35.11936205 30.4265061 36.46709668 31.87925775 38.44921875 34.203125 C40.1748753 39.38009465 40.3225715 44.97122353 38.32421875 50.078125 C35.30112167 53.50430169 32.67448021 55.88217383 28.01171875 56.5546875 C23.02543084 56.71792907 19.44104619 56.46916563 15.44921875 53.203125 C14.44199882 52.21039744 13.44070857 51.21156336 12.44921875 50.203125 C12.43463623 50.93426514 12.42005371 51.66540527 12.4050293 52.41870117 C12.33038965 55.74319871 12.23378074 59.06670967 12.13671875 62.390625 C12.11416016 63.54111328 12.09160156 64.69160156 12.06835938 65.87695312 C12.03291016 66.98876953 11.99746094 68.10058594 11.9609375 69.24609375 C11.93475342 70.26727295 11.90856934 71.28845215 11.8815918 72.34057617 C11.19322897 76.89791902 9.26227598 79.46939042 5.88671875 82.515625 C1.28455322 84.7748699 -2.51156516 84.89527863 -7.55078125 84.203125 C-10.42578125 83.015625 -10.42578125 83.015625 -12.55078125 81.203125 C-13.69546875 80.2440625 -13.69546875 80.2440625 -14.86328125 79.265625 C-17.54794357 74.39346005 -17.52493219 69.62542104 -16.55078125 64.203125 C-14.57867898 60.66175842 -12.18993083 58.02269979 -8.55078125 56.203125 C-9.04449219 55.79320312 -9.53820312 55.38328125 -10.046875 54.9609375 C-10.68753906 54.42210937 -11.32820313 53.88328125 -11.98828125 53.328125 C-12.62636719 52.79445312 -13.26445312 52.26078125 -13.921875 51.7109375 C-16.90145006 48.95286562 -16.82562719 46.44396697 -16.98828125 42.515625 C-16.97209445 38.02648653 -16.62260709 35.45717343 -13.67578125 32.015625 C-11.98641658 30.3385021 -10.68241833 29.26894354 -8.55078125 28.203125 C-9.04449219 27.79320313 -9.53820312 27.38328125 -10.046875 26.9609375 C-10.68753906 26.42210938 -11.32820313 25.88328125 -11.98828125 25.328125 C-12.62636719 24.79445313 -13.26445312 24.26078125 -13.921875 23.7109375 C-16.90145006 20.95286562 -16.82562719 18.44396697 -16.98828125 14.515625 C-16.97209445 10.02648653 -16.62260709 7.45717343 -13.67578125 4.015625 C-9.44752655 -0.18199018 -5.75197872 0.02955641 0 0 Z M11.44921875 28.203125 C11.44921875 30.843125 11.44921875 33.483125 11.44921875 36.203125 C12.21234375 35.44 12.97546875 34.676875 13.76171875 33.890625 C15.65755208 31.99479167 17.55338542 30.09895833 19.44921875 28.203125 C16.80921875 28.203125 14.16921875 28.203125 11.44921875 28.203125 Z " fill="#7A4CFF" transform="translate(38.55078125,5.796875)"/>
<path d="M0 0 C0.85095749 -0.00570007 1.70191498 -0.01140015 2.57865906 -0.01727295 C4.38177241 -0.02672798 6.18490308 -0.03325892 7.98803711 -0.03710938 C10.74038073 -0.04679987 13.49197283 -0.07781175 16.24414062 -0.109375 C17.99608932 -0.11590663 19.74804335 -0.12115647 21.5 -0.125 C22.73149529 -0.1435202 22.73149529 -0.1435202 23.98786926 -0.16241455 C29.63924917 -0.14050128 32.83769517 0.96467622 37.19921875 4.703125 C40.51822105 8.68592776 39.8710508 14.32862132 39.44921875 19.203125 C37.63079588 23.85020568 34.75868169 25.81682243 30.44921875 28.203125 C27.53158159 28.75094194 24.68853469 28.74163122 21.7265625 28.69921875 C20.90346085 28.70067398 20.08035919 28.70212921 19.23231506 28.70362854 C17.50013675 28.70197539 15.76794286 28.6904798 14.03588867 28.66967773 C11.39112776 28.64067335 8.74836797 28.64909023 6.10351562 28.66210938 C4.41535489 28.65587254 2.72720045 28.64748202 1.0390625 28.63671875 C-0.14079979 28.64112221 -0.14079979 28.64112221 -1.34449768 28.64561462 C-7.32974125 28.54316755 -10.38319699 27.01920911 -14.86328125 23.265625 C-17.54794357 18.39346005 -17.52493219 13.62542104 -16.55078125 8.203125 C-12.44824544 0.83607137 -7.99514435 0.04108287 0 0 Z " fill="#E64918" transform="translate(38.55078125,5.796875)"/>
<path d="M0 0 C3.031875 -0.061875 6.06375 -0.12375 9.1875 -0.1875 C10.60712036 -0.22846802 10.60712036 -0.22846802 12.05541992 -0.27026367 C17.95330064 -0.32848498 21.20260239 0.60223062 25.75 4.5 C29.0690023 8.48280276 28.42183205 14.12549632 28 19 C26.18152277 23.64721959 23.34402217 25.66314879 19 28 C15.68547652 28.47003894 12.46377477 28.37971688 9.125 28.25 C4.608125 28.12625 4.608125 28.12625 0 28 C0 18.76 0 9.52 0 0 Z " fill="#FF6F42" transform="translate(50,6)"/>
<path d="M0 0 C0.89589844 0.00322266 1.79179688 0.00644531 2.71484375 0.00976562 C4.12056641 0.02233398 4.12056641 0.02233398 5.5546875 0.03515625 C6.49957031 0.03966797 7.44445312 0.04417969 8.41796875 0.04882812 C10.75527137 0.06063268 13.09244811 0.07709866 15.4296875 0.09765625 C15.51084743 3.16069203 15.57026159 6.2215644 15.6171875 9.28515625 C15.64232422 10.14947266 15.66746094 11.01378906 15.69335938 11.90429688 C15.7498004 16.81466646 15.65423187 20.12428404 12.4296875 24.09765625 C8.03097535 28.06722575 4.47963444 28.67514637 -1.23828125 28.41796875 C-4.36132036 27.9890086 -6.17114493 27.14400506 -8.5703125 25.09765625 C-9.3334375 24.45828125 -10.0965625 23.81890625 -10.8828125 23.16015625 C-13.56747482 18.2879913 -13.54446344 13.51995229 -12.5703125 8.09765625 C-9.54042753 2.65679575 -6.23100746 -0.03943676 0 0 Z " fill="#64BB68" transform="translate(34.5703125,61.90234375)"/>
<path d="M0 0 C3.28636404 1.43778427 5.70241762 3.24290115 8 6 C9.72565655 11.17696965 9.87335275 16.76809853 7.875 21.875 C4.85190292 25.30117669 2.22526146 27.67904883 -2.4375 28.3515625 C-7.39431511 28.51383919 -11.0924861 28.3328795 -15 25 C-15.763125 24.360625 -16.52625 23.72125 -17.3125 23.0625 C-19.99716232 18.19033505 -19.97415094 13.42229604 -19 8 C-14.46519626 -0.14329086 -8.7533936 -0.72205996 0 0 Z " fill="#28B7F6" transform="translate(69,34)"/>
</svg>
