<?xml version="1.0" encoding="UTF-8"?>
<svg version="1.1" xmlns="http://www.w3.org/2000/svg" width="96" height="96">
<path d="M0 0 C7.52112798 0.78345083 14.50500592 2.50500592 20 8 C22.55138168 11.55670223 24.645089 15.13807329 26.3125 19.1875 C28.41074268 22.68457113 30.7151389 23.93609051 34.2578125 25.82421875 C36 27 36 27 37 30 C36.01 30.66 35.02 31.32 34 32 C35.32 33.32 36.64 34.64 38 36 C37.505 36.99 37.505 36.99 37 38 C35.491987 37.07544441 33.99375083 36.1349253 32.5 35.1875 C31.6646875 34.66542969 30.829375 34.14335938 29.96875 33.60546875 C29.3190625 33.07566406 28.669375 32.54585937 28 32 C28 31.01 28 30.02 28 29 C28.99 28.67 29.98 28.34 31 28 C29.989375 27.443125 28.97875 26.88625 27.9375 26.3125 C23.16538954 22.98356811 21.2643966 18.22120463 18.87109375 13.05859375 C15.83611165 8.09744347 11.58197477 5.90362872 6.125 4.25 C5.34382813 4.00765625 4.56265625 3.7653125 3.7578125 3.515625 C3.17773438 3.34546875 2.59765625 3.1753125 2 3 C2.6496875 3.804375 2.6496875 3.804375 3.3125 4.625 C7.52710832 10.55667097 8.42711931 14.88134492 8 22 C8.99 21.01 9.98 20.02 11 19 C11.38671875 19.68707031 11.7734375 20.37414062 12.171875 21.08203125 C12.69265625 21.98308594 13.2134375 22.88414063 13.75 23.8125 C14.26046875 24.70582031 14.7709375 25.59914063 15.296875 26.51953125 C16.81181586 29.09272171 16.81181586 29.09272171 19.19140625 30.3203125 C21 32 21 32 21.35546875 35.72265625 C21.31965218 37.16991081 21.26291837 38.61676812 21.1875 40.0625 C20.74683442 45.18012147 20.74683442 45.18012147 22 50 C19.77027727 49.88534579 17.54121247 49.75785234 15.3125 49.625 C14.07113281 49.55539063 12.82976562 49.48578125 11.55078125 49.4140625 C8.30682228 49.03577906 5.93432815 48.38020024 3 47 C2.91923037 44.54101345 2.85962857 42.08466258 2.8125 39.625 C2.77479492 38.57699219 2.77479492 38.57699219 2.73632812 37.5078125 C2.70703125 35.4765625 2.70703125 35.4765625 3 32 C5.90092502 30.06604999 6.89674737 29.69868059 10.1875 29.375 C11.445625 29.25125 12.70375 29.1275 14 29 C10.91190305 27.23537317 9.76687864 27 6 27 C4.70267109 24.40534218 4.85366949 22.3365432 4.75 19.4375 C4.36794055 13.95033589 3.05216057 10.44624525 -0.0390625 5.9375 C-1 4 -1 4 -0.6484375 1.75 C-0.43445312 1.1725 -0.22046875 0.595 0 0 Z M8 34 C7.92773498 35.85287502 7.9161878 37.70833878 7.9375 39.5625 C7.94652344 40.57441406 7.95554687 41.58632813 7.96484375 42.62890625 C7.97644531 43.41136719 7.98804687 44.19382812 8 45 C10.60582371 45.93065133 11.64198224 46.14917407 14.25 45.0625 C14.8275 44.711875 15.405 44.36125 16 44 C16.02688151 42.35425434 16.04634123 40.70838587 16.0625 39.0625 C16.07410156 38.14597656 16.08570313 37.22945312 16.09765625 36.28515625 C16.25949049 34.03406673 16.25949049 34.03406673 15 33 C11.19759625 32.52263947 11.19759625 32.52263947 8 34 Z " fill="#007669" transform="translate(58,22)"/>
<path d="M0 0 C2.55078125 0.91015625 2.55078125 0.91015625 4.1328125 3.4140625 C4.53886719 4.42339844 4.94492188 5.43273438 5.36328125 6.47265625 C5.78222656 7.48457031 6.20117188 8.49648438 6.6328125 9.5390625 C6.93574219 10.32152344 7.23867187 11.10398437 7.55078125 11.91015625 C7.92589844 11.12769531 8.30101562 10.34523438 8.6875 9.5390625 C9.19925781 8.52714844 9.71101562 7.51523437 10.23828125 6.47265625 C10.73714844 5.46332031 11.23601563 4.45398437 11.75 3.4140625 C13.55078125 0.91015625 13.55078125 0.91015625 16.1328125 0 C18.55078125 -0.08984375 18.55078125 -0.08984375 20.55078125 0.91015625 C20.55078125 6.85015625 20.55078125 12.79015625 20.55078125 18.91015625 C19.23078125 18.91015625 17.91078125 18.91015625 16.55078125 18.91015625 C16.05578125 13.96015625 16.05578125 13.96015625 15.55078125 8.91015625 C14.68453125 11.10671875 14.68453125 11.10671875 13.80078125 13.34765625 C12.81640625 15.84375 12.81640625 15.84375 11.55078125 17.91015625 C8.60159242 19.1901042 7.68267774 18.95412175 4.55078125 17.91015625 C2.91686666 15.01938428 1.80962212 11.99214596 0.55078125 8.91015625 C0.22078125 12.21015625 -0.10921875 15.51015625 -0.44921875 18.91015625 C-1.76921875 18.91015625 -3.08921875 18.91015625 -4.44921875 18.91015625 C-4.44921875 12.97015625 -4.44921875 7.03015625 -4.44921875 0.91015625 C-2.44921875 -0.08984375 -2.44921875 -0.08984375 0 0 Z " fill="#007769" transform="translate(4.44921875,52.08984375)"/>
<path d="M0 0 C1.051875 -0.00515625 2.10375 -0.0103125 3.1875 -0.015625 C6 0.25 6 0.25 9 2.25 C9.19512254 4.99354121 9.23486307 7.51775313 9.125 10.25 C8.7223189 15.40043675 8.7223189 15.40043675 10 20.25 C7.77027727 20.13534579 5.54121247 20.00785234 3.3125 19.875 C2.07113281 19.80539063 0.82976562 19.73578125 -0.44921875 19.6640625 C-3.69317772 19.28577906 -6.06567185 18.63020024 -9 17.25 C-9.08076963 14.79101345 -9.14037143 12.33466258 -9.1875 9.875 C-9.21263672 9.17632812 -9.23777344 8.47765625 -9.26367188 7.7578125 C-9.29296875 5.7265625 -9.29296875 5.7265625 -9 2.25 C-5.53767506 -0.05821663 -4.08201684 -0.02000989 0 0 Z M-4 4.25 C-4.07226502 6.10287502 -4.0838122 7.95833878 -4.0625 9.8125 C-4.05347656 10.82441406 -4.04445313 11.83632813 -4.03515625 12.87890625 C-4.02355469 13.66136719 -4.01195313 14.44382812 -4 15.25 C-1.39417629 16.18065133 -0.35801776 16.39917407 2.25 15.3125 C2.8275 14.961875 3.405 14.61125 4 14.25 C4.02688151 12.60425434 4.04634123 10.95838587 4.0625 9.3125 C4.07410156 8.39597656 4.08570312 7.47945312 4.09765625 6.53515625 C4.25949049 4.28406673 4.25949049 4.28406673 3 3.25 C-0.80240375 2.77263947 -0.80240375 2.77263947 -4 4.25 Z " fill="#F47D16" transform="translate(70,51.75)"/>
<path d="M0 0 C1.65 0 3.3 0 5 0 C5.33 2.97 5.66 5.94 6 9 C8.97 9.495 8.97 9.495 12 10 C12 6.7 12 3.4 12 0 C13.65 0 15.3 0 17 0 C17.05384521 2.29141286 17.09272087 4.58318188 17.125 6.875 C17.14820312 8.15117188 17.17140625 9.42734375 17.1953125 10.7421875 C17 14 17 14 15 16 C12.41935871 16.14497985 9.95056116 16.18677545 7.375 16.125 C6.31539062 16.11146484 6.31539062 16.11146484 5.234375 16.09765625 C3.48943902 16.07407603 1.74467705 16.03820461 0 16 C0 15.34 0 14.68 0 14 C1.98 13.67 3.96 13.34 6 13 C5.195625 12.690625 4.39125 12.38125 3.5625 12.0625 C1 11 1 11 0 10 C-0.07205511 8.31391034 -0.08386068 6.62499341 -0.0625 4.9375 C-0.05347656 4.01839844 -0.04445313 3.09929688 -0.03515625 2.15234375 C-0.02355469 1.44207031 -0.01195313 0.73179688 0 0 Z " fill="#00786A" transform="translate(26,58)"/>
<path d="M0 0 C1.07765625 0.01804688 2.1553125 0.03609375 3.265625 0.0546875 C4.49539062 0.08949219 4.49539062 0.08949219 5.75 0.125 C5.75 1.115 5.75 2.105 5.75 3.125 C2.12 3.125 -1.51 3.125 -5.25 3.125 C-5.25 4.775 -5.25 6.425 -5.25 8.125 C-4.62351562 8.10179687 -3.99703125 8.07859375 -3.3515625 8.0546875 C-2.53429688 8.03664063 -1.71703125 8.01859375 -0.875 8 C-0.06289063 7.97679687 0.74921875 7.95359375 1.5859375 7.9296875 C3.75 8.125 3.75 8.125 5.75 10.125 C6.1875 13.0625 6.1875 13.0625 5.75 16.125 C3.33009553 18.62834945 1.40182721 19.08380306 -2.03125 19.30078125 C-4.77817532 19.31140081 -7.50640331 19.25473224 -10.25 19.125 C-10.25 18.135 -10.25 17.145 -10.25 16.125 C-6.95 15.795 -3.65 15.465 -0.25 15.125 C0.08 13.805 0.41 12.485 0.75 11.125 C-2.22851562 11.22265625 -2.22851562 11.22265625 -5.20703125 11.3203125 C-7.25 11.125 -7.25 11.125 -10.25 9.125 C-10.4375 5.5 -10.4375 5.5 -10.25 2.125 C-6.7733662 -0.01836161 -4.03770805 -0.08777626 0 0 Z " fill="#F47E16" transform="translate(54.25,51.875)"/>
<path d="M0 0 C1.65 0 3.3 0 5 0 C5.33 4.95 5.66 9.9 6 15 C9.3 15.33 12.6 15.66 16 16 C16 16.99 16 17.98 16 19 C14.27163534 19.08172652 12.54213041 19.13951818 10.8125 19.1875 C9.36810547 19.23970703 9.36810547 19.23970703 7.89453125 19.29296875 C4.33827181 18.93302346 2.63830287 18.4471215 0 16 C-0.37859559 13.05906948 -0.47775614 10.72355042 -0.3125 7.8125 C-0.27866211 6.68811523 -0.27866211 6.68811523 -0.24414062 5.54101562 C-0.18529157 3.6931553 -0.09560938 1.84632333 0 0 Z " fill="#F47E17" transform="translate(80,52)"/>
<path d="M0 0 C0.99 0.33 1.98 0.66 3 1 C3 1.66 3 2.32 3 3 C2.01 2.67 1.02 2.34 0 2 C0 1.34 0 0.68 0 0 Z " fill="#00766C" transform="translate(65,28)"/>
</svg>
