<?xml version="1.0" encoding="UTF-8"?>
<svg version="1.1" xmlns="http://www.w3.org/2000/svg" width="96" height="96">
<path d="M0 0 C0.77512939 0.00404846 1.55025879 0.00809692 2.34887695 0.01226807 C3.16525635 0.00876343 3.98163574 0.00525879 4.82275391 0.00164795 C7.52946399 -0.00717635 10.23591407 -0.0013178 12.94262695 0.00543213 C14.81827851 0.00408568 16.69392972 0.00214532 18.56958008 -0.00036621 C22.50385861 -0.00331842 26.43804644 0.00098327 30.37231445 0.01031494 C35.4233726 0.02170953 40.47421822 0.01515057 45.52526855 0.00317001 C49.39934907 -0.00404598 53.27337893 -0.00176186 57.14746094 0.0034256 C59.01025416 0.00476282 60.87305193 0.00311186 62.73583984 -0.00153351 C65.33614337 -0.00659448 67.9360994 0.00110532 70.53637695 0.01226807 C71.31150635 0.0082196 72.08663574 0.00417114 72.88525391 0 C78.21409851 0.04252869 78.21409851 0.04252869 80.44262695 2.27105713 C81.09698214 8.59873923 79.84940421 12.3188099 76.38012695 17.64605713 C75.45488452 19.14087447 74.53185214 20.63706118 73.6105957 22.13433838 C73.10318848 22.94983154 72.59578125 23.76532471 72.07299805 24.60552979 C69.00637862 29.61920917 66.11386861 34.73431258 63.19262695 39.83355713 C58.00371428 48.84490017 52.7984054 57.8464615 47.56762695 66.83355713 C46.66608887 68.38635376 46.66608887 68.38635376 45.74633789 69.97052002 C45.19494141 70.91661133 44.64354492 71.86270264 44.07543945 72.83746338 C43.58962402 73.67221191 43.10380859 74.50696045 42.60327148 75.36700439 C41.44262695 77.27105713 41.44262695 77.27105713 40.44262695 78.27105713 C35.47212692 79.11351476 35.47212692 79.11351476 32.44262695 78.27105713 C29.7781463 75.65696854 28.1989498 72.53885353 26.44262695 69.27105713 C25.86899414 68.33519775 25.29536133 67.39933838 24.7043457 66.43511963 C19.98026899 58.50735871 19.98026899 58.50735871 21.44262695 52.27105713 C22.74951172 49.47857666 22.74951172 49.47857666 24.3840332 46.65386963 C24.96733398 45.63551025 25.55063477 44.61715088 26.15161133 43.56793213 C26.76327148 42.52121338 27.37493164 41.47449463 28.00512695 40.39605713 C28.6206543 39.32613525 29.23618164 38.25621338 29.87036133 37.15386963 C31.3863569 34.5214432 32.91061626 31.8941847 34.44262695 29.27105713 C33.12657471 29.28845947 33.12657471 29.28845947 31.78393555 29.30621338 C28.50609381 29.33048406 25.23236573 29.31879911 21.95483398 29.28326416 C20.54078102 29.27518755 19.12657154 29.28115606 17.71264648 29.30181885 C6.01033767 29.45850938 6.01033767 29.45850938 2.26147461 26.61895752 C0.70484793 24.5722817 -0.44274154 22.58390402 -1.55737305 20.27105713 C-2.18385742 19.30039307 -2.8103418 18.329729 -3.45581055 17.32965088 C-8.57405844 8.24408384 -8.57405844 8.24408384 -7.55737305 2.27105713 C-5.02928342 -0.2570325 -3.4486739 0.02752334 0 0 Z " fill="#2096F2" transform="translate(11.557373046875,11.72894287109375)"/>
<path d="M0 0 C1.21880859 -0.01224609 2.43761719 -0.02449219 3.69335938 -0.03710938 C5.43649414 -0.04000977 5.43649414 -0.04000977 7.21484375 -0.04296875 C8.28726318 -0.04707764 9.35968262 -0.05118652 10.46459961 -0.05541992 C13.0625 0.1875 13.0625 0.1875 15.0625 2.1875 C15.86831453 10.5605613 13.49048302 17.5771642 8.703125 24.4609375 C4.40960602 28.94961644 -0.35355205 29.23443708 -6.24647522 29.4229126 C-13.83127867 29.46517545 -21.39400465 28.94230113 -28.9375 28.1875 C-25.56956426 21.30275757 -22.13395071 14.53438265 -18.125 8 C-17.73119141 7.34708984 -17.33738281 6.69417969 -16.93164062 6.02148438 C-12.33032429 -1.56318972 -8.59164984 0.00452907 0 0 Z " fill="#1573C0" transform="translate(76.9375,11.8125)"/>
</svg>
