<?xml version="1.0" encoding="UTF-8"?>
<svg version="1.1" xmlns="http://www.w3.org/2000/svg" width="512" height="512">
<path d="M0 0 C1.65173007 -0.00461646 3.30345603 -0.01097435 4.95517349 -0.01890898 C9.46563676 -0.03552322 13.97575913 -0.02739214 18.48622322 -0.0149641 C23.36156587 -0.0058834 28.23685145 -0.01989828 33.11218262 -0.03088379 C42.6517595 -0.04864142 52.19121028 -0.04484131 61.73079205 -0.03323323 C69.4859438 -0.02418833 77.2410603 -0.02297948 84.99621582 -0.02732849 C86.65379673 -0.02824789 86.65379673 -0.02824789 88.34486413 -0.02918586 C90.58997696 -0.0304648 92.83508977 -0.03176166 95.08020258 -0.03307623 C116.11735048 -0.04447395 137.15442858 -0.03138098 158.19156504 -0.00987476 C176.23028403 0.00799547 194.26890005 0.00489114 212.30761719 -0.0135498 C233.27107818 -0.03497077 254.23447805 -0.04337539 275.19794846 -0.03110075 C277.43465931 -0.02982659 279.67137018 -0.02856911 281.90808105 -0.02732849 C283.55870462 -0.02640284 283.55870462 -0.02640284 285.24267411 -0.02545848 C292.98573163 -0.02200927 300.72875027 -0.0278247 308.47180176 -0.0372467 C317.91198615 -0.04848167 327.35203755 -0.04539511 336.79220676 -0.02412373 C341.60588459 -0.01363352 346.41934093 -0.00945684 351.23301697 -0.02272034 C355.64472893 -0.03469215 360.05601535 -0.02800321 364.46768904 -0.00681013 C366.05837699 -0.00236428 367.64910135 -0.00456465 369.23976564 -0.01431328 C383.77026248 -0.0964924 395.49176543 2.49038021 406.45214844 12.50793457 C417.15017186 24.21283078 419.05410823 36.71388245 418.96008301 52.05578613 C418.96469946 53.70751621 418.97105736 55.35924216 418.97899199 57.01095963 C418.99560622 61.52142289 418.98747515 66.03154527 418.97504711 70.54200935 C418.9659664 75.417352 418.97998129 80.29263758 418.9909668 85.16796875 C419.00872442 94.70754564 419.00492432 104.24699641 418.99331623 113.78657818 C418.98427133 121.54172994 418.98306249 129.29684643 418.9874115 137.05200195 C418.98802443 138.1570559 418.98863736 139.26210984 418.98926887 140.40065026 C418.99054781 142.64576309 418.99184466 144.89087591 418.99315923 147.13598871 C419.00455696 168.17313661 418.99146399 189.21021472 418.96995777 210.24735117 C418.95208754 228.28607016 418.95519187 246.32468618 418.97363281 264.36340332 C418.99505377 285.32686431 419.0034584 306.29026418 418.99118376 327.25373459 C418.9899096 329.49044545 418.98865212 331.72715631 418.9874115 333.96386719 C418.98648585 335.61449075 418.98648585 335.61449075 418.98554149 337.29846025 C418.98209228 345.04151776 418.98790771 352.7845364 418.99732971 360.52758789 C419.00856468 369.96777228 419.00547812 379.40782368 418.98420674 388.8479929 C418.97371653 393.66167073 418.96953985 398.47512706 418.98280334 403.2888031 C418.99477516 407.70051507 418.98808622 412.11180148 418.96689314 416.52347517 C418.96244729 418.11416313 418.96464766 419.70488748 418.97439629 421.29555178 C419.05657541 435.82604861 416.4697028 447.54755156 406.45214844 458.50793457 C394.74725223 469.20595799 382.24620056 471.10989436 366.90429688 471.01586914 C365.2525668 471.0204856 363.60084085 471.02684349 361.94912338 471.03477812 C357.43866011 471.05139236 352.92853774 471.04326128 348.41807365 471.03083324 C343.54273101 471.02175254 338.66744543 471.03576742 333.79211426 471.04675293 C324.25253737 471.06451056 314.71308659 471.06071045 305.17350483 471.04910237 C297.41835307 471.04005747 289.66323658 471.03884862 281.90808105 471.04319763 C280.80302711 471.04381056 279.69797317 471.0444235 278.55943274 471.045055 C276.31431992 471.04633394 274.0692071 471.0476308 271.8240943 471.04894537 C250.78694639 471.06034309 229.74986829 471.04725012 208.71273184 471.0257439 C190.67401284 471.00787367 172.63539682 471.010978 154.59667969 471.02941895 C133.63321869 471.05083991 112.66981883 471.05924453 91.70634842 471.04696989 C89.46963756 471.04569574 87.2329267 471.04443825 84.99621582 471.04319763 C83.34559226 471.04227198 83.34559226 471.04227198 81.66162276 471.04132763 C73.91856525 471.03787841 66.17554661 471.04369384 58.43249512 471.05311584 C48.99231073 471.06435081 39.55225933 471.06126425 30.11209011 471.03999287 C25.29841228 471.02950266 20.48495594 471.02532598 15.67127991 471.03858948 C11.25956794 471.05056129 6.84828153 471.04387235 2.43660784 471.02267927 C0.84591988 471.01823342 -0.74480447 471.02043379 -2.33546877 471.03018242 C-16.8659656 471.11236155 -28.58746856 468.52548893 -39.54785156 458.50793457 C-50.24587498 446.80303836 -52.14981136 434.30198669 -52.05578613 418.96008301 C-52.06040259 417.30835294 -52.06676048 415.65662698 -52.07469511 414.00490952 C-52.09130935 409.49444625 -52.08317827 404.98432387 -52.07075024 400.47385979 C-52.06166953 395.59851714 -52.07568442 390.72323156 -52.08666992 385.84790039 C-52.10442755 376.3083235 -52.10062744 366.76887273 -52.08901936 357.22929096 C-52.07997446 349.4741392 -52.07876561 341.71902271 -52.08311462 333.96386719 C-52.08372756 332.85881325 -52.08434049 331.7537593 -52.08497199 330.61521888 C-52.08625094 328.37010605 -52.08754779 326.12499323 -52.08886236 323.87988043 C-52.10026009 302.84273253 -52.08716711 281.80565442 -52.06566089 260.76851797 C-52.04779066 242.72979898 -52.050895 224.69118296 -52.06933594 206.65246582 C-52.0907569 185.68900483 -52.09916152 164.72560496 -52.08688688 143.76213455 C-52.08561273 141.5254237 -52.08435524 139.28871283 -52.08311462 137.05200195 C-52.08249752 135.95158624 -52.08188042 134.85117054 -52.08124462 133.7174089 C-52.0777954 125.97435138 -52.08361083 118.23133274 -52.09303284 110.48828125 C-52.1042678 101.04809686 -52.10118124 91.60804546 -52.07990986 82.16787624 C-52.06941965 77.35419841 -52.06524297 72.54074208 -52.07850647 67.72706604 C-52.09047828 63.31535407 -52.08378935 58.90406766 -52.06259626 54.49239397 C-52.05815041 52.90170601 -52.06035078 51.31098166 -52.07009941 49.72031736 C-52.15227854 35.18982053 -49.56540592 23.46831758 -39.54785156 12.50793457 C-27.84295535 1.80991115 -15.34190368 -0.09402522 0 0 Z " fill="#60356C" transform="translate(72.5478515625,20.4920654296875)"/>
<path d="M0 0 C169.05151515 0 169.05151515 0 192.3984375 22.203125 C205.67807246 36.47972955 214.02575456 54.64859957 214.375 74.25 C213.57581453 96.15267683 205.88249123 113.10942559 191 129 C188.97584566 131.31391059 186.98817029 133.65497864 185 136 C185.78761719 136.37769531 186.57523438 136.75539062 187.38671875 137.14453125 C207.97990696 147.55079322 222.77628737 164.54357208 230.875 186.1875 C238.21811054 208.53824723 236.37520009 231.73588163 226.171875 252.86328125 C223.35778563 258.38737379 219.97562805 263.24901045 216 268 C215.33613281 268.83660156 214.67226563 269.67320312 213.98828125 270.53515625 C199.37963543 288.00612454 177.32042647 297.56036581 155 300 C149.76403049 300.25469867 144.53626079 300.254524 139.2956543 300.22705078 C137.74216376 300.22643654 136.18867267 300.22670777 134.63518238 300.2277813 C130.51496138 300.22822857 126.39485908 300.21672716 122.27466583 300.20256042 C118.39327158 300.19108005 114.51190465 300.1906293 110.63049316 300.18920898 C99.31614669 300.17875876 88.0018218 300.15083622 76.6875 300.125 C51.380625 300.08375 26.07375 300.0425 0 300 C0 201 0 102 0 0 Z " fill="#FDFCFD" transform="translate(149,106)"/>
<path d="M0 0 C26.59214059 -0.08021762 26.59214059 -0.08021762 37.95117188 -0.09765625 C45.6936315 -0.10959908 53.43604369 -0.12370864 61.1784668 -0.15087891 C67.42246584 -0.17265299 73.66641399 -0.18457831 79.91044807 -0.18975449 C82.2893968 -0.19344203 84.66834283 -0.20064285 87.04726982 -0.21146011 C90.38631017 -0.22603553 93.7251418 -0.22797539 97.06420898 -0.22705078 C98.04173126 -0.23424133 99.01925354 -0.24143188 100.02639771 -0.24884033 C114.4312241 -0.20584438 126.2932391 4.54443664 136.80859375 14.5703125 C147.0015768 25.87162348 149.97729386 38.90815719 149.22216797 53.74121094 C148.23640625 63.76348286 144.00415743 72.80432264 137 80 C135.88625 81.17175781 135.88625 81.17175781 134.75 82.3671875 C124.02920052 92.84745623 110.90588142 96.3353519 96.26953125 96.22705078 C94.70233086 96.22748886 94.70233086 96.22748886 93.10346985 96.22793579 C89.67306011 96.2265499 86.24287148 96.21102353 82.8125 96.1953125 C80.42496865 96.19157974 78.03743577 96.18873401 75.64990234 96.18673706 C69.38307423 96.17912134 63.11633964 96.15949052 56.84954834 96.1373291 C49.3212426 96.1132179 41.79290549 96.10407988 34.26457214 96.09242249 C22.84298316 96.07306499 11.42159917 96.03472784 0 96 C0 64.32 0 32.64 0 0 Z " fill="#5B3366" transform="translate(192,267)"/>
<path d="M0 0 C23.18734833 -0.16043524 23.18734833 -0.16043524 33.13476562 -0.1953125 C39.90027547 -0.21914661 46.66556706 -0.24722436 53.4309082 -0.30175781 C58.89039807 -0.34548559 64.3496536 -0.3691937 69.80930519 -0.37950897 C71.8835398 -0.38685225 73.9577628 -0.40119087 76.03189659 -0.42292023 C90.6318779 -0.56967574 104.73384366 -0.69414399 116 10 C116.61488281 10.57492188 117.22976563 11.14984375 117.86328125 11.7421875 C124.80195334 18.90372914 128.25298217 27.23160737 128.5 37.1875 C128.07197002 47.70315545 124.57731065 55.96495828 117.5 63.75 C116.675 64.4925 115.85 65.235 115 66 C114.278125 66.680625 113.55625 67.36125 112.8125 68.0625 C107.23413556 71.90537328 99.79471856 75.12910054 92.95674133 75.12025452 C92.1364444 75.12162918 91.31614746 75.12300385 90.47099304 75.12442017 C89.57475723 75.12082489 88.67852142 75.11722961 87.75512695 75.11352539 C86.33532532 75.11374443 86.33532532 75.11374443 84.88684082 75.1139679 C81.75396443 75.11327047 78.62114727 75.10548599 75.48828125 75.09765625 C73.3178053 75.09579147 71.14732894 75.09436785 68.97685242 75.09336853 C63.26072022 75.08954811 57.54461338 75.07972184 51.82849121 75.06866455 C44.97192662 75.05664301 38.11535355 75.05204593 31.25878143 75.04621124 C20.83916998 75.03650987 10.41961418 75.01734996 0 75 C0 50.25 0 25.5 0 0 Z " fill="#5E3768" transform="translate(192,149)"/>
<path d="M0 0 C1.65173007 -0.00461646 3.30345603 -0.01097435 4.95517349 -0.01890898 C9.46563676 -0.03552322 13.97575913 -0.02739214 18.48622322 -0.0149641 C23.36156587 -0.0058834 28.23685145 -0.01989828 33.11218262 -0.03088379 C42.6517595 -0.04864142 52.19121028 -0.04484131 61.73079205 -0.03323323 C69.4859438 -0.02418833 77.2410603 -0.02297948 84.99621582 -0.02732849 C86.65379673 -0.02824789 86.65379673 -0.02824789 88.34486413 -0.02918586 C90.58997696 -0.0304648 92.83508977 -0.03176166 95.08020258 -0.03307623 C116.11735048 -0.04447395 137.15442858 -0.03138098 158.19156504 -0.00987476 C176.23028403 0.00799547 194.26890005 0.00489114 212.30761719 -0.0135498 C233.27107818 -0.03497077 254.23447805 -0.04337539 275.19794846 -0.03110075 C277.43465931 -0.02982659 279.67137018 -0.02856911 281.90808105 -0.02732849 C283.55870462 -0.02640284 283.55870462 -0.02640284 285.24267411 -0.02545848 C292.98573163 -0.02200927 300.72875027 -0.0278247 308.47180176 -0.0372467 C317.91198615 -0.04848167 327.35203755 -0.04539511 336.79220676 -0.02412373 C341.60588459 -0.01363352 346.41934093 -0.00945684 351.23301697 -0.02272034 C355.64472893 -0.03469215 360.05601535 -0.02800321 364.46768904 -0.00681013 C366.05837699 -0.00236428 367.64910135 -0.00456465 369.23976564 -0.01431328 C383.77026248 -0.0964924 395.49176543 2.49038021 406.45214844 12.50793457 C413.31410226 20.01571934 418.61807704 29.33308176 418.70214844 39.75793457 C418.61964844 40.66543457 418.53714844 41.57293457 418.45214844 42.50793457 C416.56696924 39.68016577 416.0650403 38.20893026 415.32714844 35.00793457 C412.5357229 25.49486743 406.41942595 18.55010444 398.33496094 13.04309082 C388.55039876 7.83261259 380.10969767 6.93307638 369.15153503 7 C367.50224375 6.99538592 365.85295658 6.9890296 364.20367795 6.98109102 C359.69062702 6.96444371 355.17791586 6.97262313 350.66486394 6.9850359 C345.79014852 6.99410315 340.91549066 6.98010821 336.04078674 6.96911621 C326.49792649 6.9513431 316.95519218 6.95516596 307.41232701 6.96676677 C299.65379887 6.97580715 291.89530597 6.97702247 284.13677406 6.97267151 C283.03173786 6.97205858 281.92670166 6.97144564 280.78817952 6.97081414 C278.54314936 6.96953521 276.2981192 6.96823835 274.05308906 6.96692377 C253.00733565 6.9555211 231.96165196 6.96862597 210.91590998 6.99012524 C192.87123252 7.00798848 174.82665802 7.00489786 156.78198242 6.9864502 C135.81523024 6.96502515 114.84853919 6.95662753 93.88177758 6.96889925 C91.6441751 6.97017341 89.40657261 6.97143089 87.16897011 6.97267151 C86.06810514 6.97328861 84.96724016 6.97390571 83.83301565 6.97454152 C76.08844736 6.97799006 68.34391796 6.97217659 60.5993557 6.9627533 C51.15439374 6.95151346 41.70956469 6.95461477 32.26461788 6.97587627 C27.44880485 6.9863611 22.63321309 6.99055252 17.81740189 6.97727966 C13.40247403 6.96529613 8.98797101 6.97201585 4.57308129 6.99318987 C2.98231575 6.99763091 1.39151377 6.99544639 -0.19922803 6.98568672 C-15.37202041 6.89979237 -27.25129261 9.52749569 -38.61035156 20.07043457 C-45.80535105 27.42772728 -48.74887792 35.531808 -50.54785156 45.50793457 C-50.87785156 45.50793457 -51.20785156 45.50793457 -51.54785156 45.50793457 C-52.47584561 33.8564538 -49.03874853 24.23113993 -41.87207031 15.05090332 C-30.22261177 2.30502515 -16.55330611 -0.10144949 0 0 Z " fill="#83618C" transform="translate(72.5478515625,20.4920654296875)"/>
<path d="M0 0 C3.16470185 4.74705277 3.10927475 8.31771295 3 14 C1.13591522 11.20387283 0.51163882 9.62830652 -0.1875 6.4375 C-0.36667969 5.65246094 -0.54585938 4.86742187 -0.73046875 4.05859375 C-1 2 -1 2 0 0 Z " fill="#774E81" transform="translate(488,49)"/>
</svg>
